<svg width="43" height="29" viewBox="0 0 43 29" fill="none" xmlns="http://www.w3.org/2000/svg">
<path fill-rule="evenodd" clip-rule="evenodd" d="M41.5667 0.166668V6.61667H42.6417V28.8333H16.4834V21.6667H9.31673V28.8333H0.358398V6.61667H16.4834V0.166668H41.5667ZM26.5937 11.5702C26.5937 10.5286 26.654 9.52789 27.1765 8.60885C27.6333 7.81561 28.2705 7.169 28.9171 6.51275L29.0251 6.40315L29.1329 6.5127L29.133 6.51273C29.7796 7.16899 30.4168 7.81561 30.8737 8.60885C31.3961 9.52789 31.4564 10.5286 31.4564 11.5702C32.4005 10.2431 34.0273 9.71201 35.554 9.52805C35.5414 9.71391 35.4414 11.1121 35.254 11.8357C34.8077 13.4719 33.4259 14.517 32.1114 15.5112C31.7687 15.7704 31.4305 16.0261 31.1148 16.2879C30.7746 16.5726 30.4295 16.8624 30.0844 17.1522L30.0842 17.1523L30.0819 17.1543L30.0797 17.1561C29.7332 17.4471 29.3867 17.738 29.0451 18.0239V18.7796C29.6394 18.2806 30.2421 17.79 30.8476 17.297C31.1839 17.0233 31.5211 16.7488 31.8582 16.4717C32.1648 16.2206 32.4734 15.9727 32.7819 15.7248L32.7821 15.7247C33.8287 14.8839 34.8746 14.0436 35.8367 13.0815C35.889 13.0284 35.9422 12.9749 35.9958 12.9209C36.5191 12.3942 37.0867 11.8229 37.3236 11.1005C37.4442 10.6716 37.5246 10.2427 37.5447 9.79338L37.625 6.91372C36.8414 7.03626 36.0578 7.13837 35.2741 7.24049C35.2741 7.24049 34.0484 7.38345 33.4255 8.11868C32.8026 8.87434 32.1998 9.65043 32.1998 9.65043C32.1998 9.65043 32.1998 8.48631 32.1395 7.32219C32.0793 6.13765 31.0143 5.09607 31.0143 5.09607L29.0451 3.05376L29.0251 3.03334L29.005 3.05376L27.0358 5.09607C27.0358 5.09607 25.9709 6.13765 25.9106 7.32219C25.8503 8.48631 25.8503 9.65042 25.8503 9.65042C25.8503 9.65042 25.2475 8.87434 24.6246 8.11868C24.0017 7.38345 22.776 7.24049 22.776 7.24049C21.9923 7.13837 21.2087 7.03626 20.425 6.91372L22.4947 9.50746L20.425 6.93417L20.5054 9.81383C20.5255 10.2631 20.6059 10.692 20.7264 11.1209C20.9634 11.8434 21.531 12.4146 22.0543 12.9414L22.0546 12.9416L22.0571 12.9442C22.1098 12.9972 22.162 13.0497 22.2134 13.102C23.1754 14.064 24.2214 14.9043 25.268 15.7451L25.2685 15.7455C25.577 15.9933 25.8855 16.2412 26.1919 16.4922C26.5291 16.7693 26.8662 17.0438 27.2025 17.3175C27.8081 17.8105 28.4107 18.301 29.005 18.8V18.0239C28.6634 17.738 28.3168 17.447 27.9701 17.1559C27.6235 16.8649 27.2769 16.5739 26.9353 16.288C26.6195 16.0261 26.2814 15.7704 25.9387 15.5112C24.6242 14.517 23.2424 13.4719 22.7961 11.8357C22.5951 11.0596 22.4947 9.50746 22.4947 9.50746C24.0419 9.71169 25.6493 10.2427 26.5937 11.5702Z" fill="#CC2027"/>
</svg>
