<svg width="34" height="31" viewBox="0 0 34 31" fill="none" xmlns="http://www.w3.org/2000/svg">
<path d="M12.6 16.8664L11.1621 13.2136C11.1621 13.2136 9.99634 11.7369 8.79168 10.2991C7.58702 8.9001 5.21655 8.62808 5.21655 8.62808C3.70101 8.43378 2.18547 8.23948 0.669922 8.00632L4.67251 12.9415C7.66474 13.3302 10.7735 14.3405 12.6 16.8664Z" fill="#CC2027"/>
<path d="M17.2632 29.1463C15.9419 28.0582 14.5818 26.9312 13.2606 25.8431C10.3072 23.4338 6.34349 21.2965 5.25541 17.3716C4.86681 15.895 4.67251 12.9415 4.67251 12.9415L0.669922 8.04522L0.825362 13.5245C0.864222 14.3794 1.01966 15.1955 1.25282 16.0115C1.758 17.5271 3.04039 18.6929 4.12847 19.781C6.53779 22.1514 9.21914 24.1333 11.8228 26.2317C13.6492 27.7084 15.4756 29.1463 17.2632 30.6229V29.1463Z" fill="#CC2027"/>
<path d="M12.6 16.8664C12.6 14.8846 12.7166 12.9804 13.7269 11.2317C14.6596 9.63846 15.9808 8.35608 17.3021 7.03484V0.622925L17.2632 0.661785L13.4549 4.54779C13.4549 4.54779 11.3953 6.52966 11.2787 8.78354C11.1622 10.9986 11.1621 13.2136 11.1621 13.2136L12.6 16.8664Z" fill="#CC2027"/>
<path d="M17.3409 29.1462C18.6621 28.0581 20.0222 26.9312 21.3435 25.8431C24.2968 23.4338 28.2606 21.2965 29.3487 17.3716C29.7373 15.8949 29.9316 12.9415 29.9316 12.9415L33.9341 8.00632L33.7787 13.4856C33.7398 14.3405 33.5844 15.1566 33.3512 15.9726C32.8461 17.4882 31.5637 18.654 30.4756 19.7421C28.0663 22.1125 25.3849 24.0944 22.7813 26.1928C20.9549 27.6695 19.1284 29.1073 17.3409 30.584V29.1462Z" fill="#CC2027"/>
<path d="M22.0041 16.8664C22.0041 14.8846 21.8875 12.9804 20.8772 11.2317C19.9445 9.63846 18.6233 8.35608 17.3021 7.03484V0.622925L17.3409 0.661785L21.1492 4.54779C21.1492 4.54779 23.2088 6.52966 23.3254 8.78354C23.4419 10.9986 23.4419 13.2136 23.4419 13.2136L22.0041 16.8664Z" fill="#CC2027"/>
<path d="M22.0041 16.8664L23.4419 13.2136C23.4419 13.2136 24.6077 11.7369 25.8124 10.2991C27.0171 8.9001 29.3875 8.62808 29.3875 8.62808C30.9031 8.43378 32.4186 8.23948 33.9341 8.00632L29.9316 12.9804C26.9782 13.3301 23.8305 14.3405 22.0041 16.8664Z" fill="#CC2027"/>
</svg>
